<?xml version="1.0" encoding="UTF-8" standalone="no"?>
<!-- Created with Inkscape (http://www.inkscape.org/) -->

<svg
   width="64mm"
   height="64mm"
   viewBox="0 0 64 64"
   version="1.1"
   id="svg1"
   inkscape:version="1.3 (0e150ed6c4, 2023-07-21)"
   sodipodi:docname="markright-dark.svg"
   xmlns:inkscape="http://www.inkscape.org/namespaces/inkscape"
   xmlns:sodipodi="http://sodipodi.sourceforge.net/DTD/sodipodi-0.dtd"
   xmlns="http://www.w3.org/2000/svg"
   xmlns:svg="http://www.w3.org/2000/svg">
  <sodipodi:namedview
     id="namedview1"
     pagecolor="#ffffff"
     bordercolor="#999999"
     borderopacity="1"
     inkscape:showpageshadow="0"
     inkscape:pageopacity="0"
     inkscape:pagecheckerboard="0"
     inkscape:deskcolor="#d1d1d1"
     inkscape:document-units="mm"
     inkscape:zoom="2.6939394"
     inkscape:cx="82.035995"
     inkscape:cy="126.58043"
     inkscape:window-width="2560"
     inkscape:window-height="1017"
     inkscape:window-x="0"
     inkscape:window-y="32"
     inkscape:window-maximized="1"
     inkscape:current-layer="layer1" />
  <defs
     id="defs1">
    <inkscape:path-effect
       effect="fillet_chamfer"
       id="path-effect14"
       is_visible="true"
       lpeversion="1"
       nodesatellites_param="F,0,0,1,0,0,0,1 @ F,0,0,1,0,0.074313042,0,1 @ F,0,0,1,0,0.052916667,0,1 @ F,0,0,1,0,0.052916667,0,1 @ F,0,0,1,0,0.052916667,0,1 @ F,0,0,1,0,0.052916667,0,1 @ F,0,0,1,0,0.052916667,0,1 @ F,0,0,1,0,0.052916667,0,1 @ F,0,0,1,0,0.052916667,0,1 @ F,0,0,1,0,0.052916667,0,1 @ F,0,0,1,0,0.052916667,0,1 @ F,0,0,1,0,0.052916667,0,1 @ F,0,0,1,0,0.052916667,0,1 @ F,0,0,1,0,0.052916667,0,1 @ F,0,0,1,0,0.052916667,0,1 @ F,0,0,1,0,0.052916667,0,1 @ F,0,0,1,0,0.052916667,0,1 @ F,0,0,1,0,0.052916667,0,1 @ F,0,0,1,0,0.052916667,0,1 @ F,0,0,1,0,0.052916667,0,1 @ F,0,0,1,0,0.052916667,0,1 @ F,0,0,1,0,0.052916667,0,1 @ F,0,0,1,0,0.052916667,0,1 @ F,0,0,1,0,0.052916667,0,1 @ F,0,0,1,0,0.052916667,0,1 @ F,0,0,1,0,0.052916667,0,1 @ F,0,0,1,0,0.052916667,0,1 @ F,0,0,1,0,0.052916667,0,1 @ F,0,0,1,0,0.052916667,0,1 @ F,0,0,1,0,0.052916667,0,1 @ F,0,0,1,0,0.052916667,0,1 | F,0,0,1,0,0.052916667,0,1 @ F,0,0,1,0,0.052916667,0,1 @ F,0,0,1,0,0.052916667,0,1 @ F,0,0,1,0,0.052916667,0,1 @ F,0,0,1,0,0.052916667,0,1 @ F,0,0,1,0,0.052916667,0,1 @ F,0,0,1,0,0.052916667,0,1 @ F,0,0,1,0,0.052916667,0,1 @ F,0,0,1,0,0.052916667,0,1 @ F,0,0,1,0,0.052916667,0,1 @ F,0,0,1,0,0.052916667,0,1 @ F,0,0,1,0,0.052916667,0,1 @ F,0,0,1,0,0.052916667,0,1 @ F,0,0,1,0,0.052916667,0,1 @ F,0,0,1,0,0.052916667,0,1 @ F,0,0,1,0,0.041564248,0,1 @ F,0,0,1,0,0.052916667,0,1 @ F,0,0,1,0,0.052916667,0,1 @ F,0,0,1,0,0.052916667,0,1 @ F,0,0,1,0,0.052916667,0,1 @ F,0,0,1,0,0.052916667,0,1 @ F,0,0,1,0,0.052916667,0,1 @ F,0,0,1,0,0.052916667,0,1 @ F,0,0,1,0,0.052916667,0,1 @ F,0,0,1,0,0.052916667,0,1 @ F,0,0,1,0,0.052916667,0,1 @ F,0,0,1,0,0.052916667,0,1 @ F,0,0,1,0,0.052916667,0,1 @ F,0,0,1,0,0.052916667,0,1 | F,0,0,1,0,0.052916667,0,1 @ F,0,0,1,0,0.052916667,0,1 @ F,0,0,1,0,0.052916667,0,1 @ F,0,0,1,0,0.052916667,0,1 @ F,0,0,1,0,0.052916667,0,1 @ F,0,0,1,0,0.052916667,0,1 @ F,0,0,1,0,0.052916667,0,1 @ F,0,0,1,0,0.052916667,0,1 @ F,0,0,1,0,0.052916667,0,1 @ F,0,0,1,0,0.052916667,0,1 @ F,0,0,1,0,0.052916667,0,1 @ F,0,0,1,0,0.052916667,0,1 @ F,0,0,1,0,0.052916667,0,1 @ F,0,0,1,0,0.052916667,0,1 @ F,0,0,1,0,0.052916667,0,1 @ F,0,0,1,0,0.052916667,0,1 @ F,0,0,1,0,0.052916667,0,1 @ F,0,0,1,0,0.052916667,0,1 @ F,0,0,1,0,0.052916667,0,1 @ F,0,0,1,0,0.052916667,0,1 @ F,0,0,1,0,0.052916667,0,1 @ F,0,0,1,0,0.052916667,0,1 @ F,0,0,1,0,0.052916667,0,1 @ F,0,0,1,0,0.052916667,0,1 @ F,0,0,1,0,0.052916667,0,1 @ F,0,0,1,0,0.052916667,0,1 @ F,0,0,1,0,0.052916667,0,1 @ F,0,0,1,0,0.052916667,0,1 @ F,0,0,1,0,0.052916667,0,1 @ F,0,0,1,0,0.052916667,0,1 @ F,0,0,1,0,0.052916667,0,1 @ F,0,0,1,0,0.052916667,0,1 @ F,0,0,1,0,0.052916667,0,1 @ F,0,0,1,0,0.052916667,0,1 @ F,0,0,1,0,0.052916667,0,1 @ F,0,0,1,0,0.052916667,0,1 @ F,0,0,1,0,0.052916667,0,1 @ F,0,0,1,0,0.052916667,0,1 @ F,0,0,1,0,0.052916667,0,1 @ F,0,0,1,0,0.052916667,0,1 @ F,0,0,1,0,0,0,1 @ F,0,0,1,0,0.052916667,0,1 | F,0,0,1,0,0.052916667,0,1 @ F,0,0,1,0,0.052916667,0,1 @ F,0,0,1,0,0.052916667,0,1 @ F,0,0,1,0,0.052916667,0,1 @ F,0,0,1,0,0.052916667,0,1 | F,0,0,1,0,0.052916667,0,1 @ F,0,0,1,0,0.052916667,0,1 @ F,0,0,1,0,0.052916667,0,1 @ F,0,0,1,0,0.052916667,0,1 @ F,0,0,1,0,0.052916667,0,1 @ F,0,0,1,0,0.052916667,0,1 @ F,0,0,1,0,0.052916667,0,1 @ F,0,0,1,0,0.052916667,0,1 @ F,0,0,1,0,0.052916667,0,1 @ F,0,0,1,0,0.052916667,0,1 @ F,0,0,1,0,0.052916667,0,1 @ F,0,0,1,0,0.052916667,0,1 @ F,0,0,1,0,0.052916667,0,1 @ F,0,0,1,0,0.052916667,0,1 @ F,0,0,1,0,0.052916667,0,1 @ F,0,0,1,0,0.052916667,0,1 @ F,0,0,1,0,0.052916667,0,1 | F,0,0,1,0,0.052916667,0,1 @ F,0,0,1,0,0.052916667,0,1 @ F,0,0,1,0,0.052916667,0,1 @ F,0,0,1,0,0.052916667,0,1 @ F,0,0,1,0,0.052916667,0,1 @ F,0,0,1,0,0.052916667,0,1 | F,0,0,1,0,0.052916667,0,1 @ F,0,0,1,0,0.052916667,0,1 @ F,0,0,1,0,0.052916667,0,1 @ F,0,0,1,0,0.052916667,0,1 @ F,0,0,1,0,0.052916667,0,1"
       radius="0.2"
       unit="px"
       method="auto"
       mode="F"
       chamfer_steps="1"
       flexible="false"
       use_knot_distance="true"
       apply_no_radius="true"
       apply_with_radius="true"
       only_selected="false"
       hide_knots="false" />
    <inkscape:path-effect
       effect="fillet_chamfer"
       id="path-effect18"
       is_visible="true"
       lpeversion="1"
       nodesatellites_param="F,0,0,1,0,0,0,1 @ F,0,0,1,0,0.074313042,0,1 @ F,0,0,1,0,0.052916667,0,1 @ F,0,0,1,0,0.052916667,0,1 @ F,0,0,1,0,0.052916667,0,1 @ F,0,0,1,0,0.052916667,0,1 @ F,0,0,1,0,0.052916667,0,1 @ F,0,0,1,0,0.052916667,0,1 @ F,0,0,1,0,0.052916667,0,1 @ F,0,0,1,0,0.052916667,0,1 @ F,0,0,1,0,0.052916667,0,1 @ F,0,0,1,0,0.052916667,0,1 @ F,0,0,1,0,0.052916667,0,1 @ F,0,0,1,0,0.052916667,0,1 @ F,0,0,1,0,0.052916667,0,1 @ F,0,0,1,0,0.052916667,0,1 @ F,0,0,1,0,0.052916667,0,1 @ F,0,0,1,0,0.052916667,0,1 @ F,0,0,1,0,0.052916667,0,1 @ F,0,0,1,0,0.052916667,0,1 @ F,0,0,1,0,0.052916667,0,1 @ F,0,0,1,0,0.052916667,0,1 @ F,0,0,1,0,0.052916667,0,1 @ F,0,0,1,0,0.052916667,0,1 @ F,0,0,1,0,0.052916667,0,1 @ F,0,0,1,0,0.052916667,0,1 @ F,0,0,1,0,0.052916667,0,1 @ F,0,0,1,0,0.052916667,0,1 @ F,0,0,1,0,0.052916667,0,1 @ F,0,0,1,0,0.052916667,0,1 @ F,0,0,1,0,0.052916667,0,1 | F,0,0,1,0,0.052916667,0,1 @ F,0,0,1,0,0.052916667,0,1 @ F,0,0,1,0,0.052916667,0,1 @ F,0,0,1,0,0.052916667,0,1 @ F,0,0,1,0,0.052916667,0,1 @ F,0,0,1,0,0.052916667,0,1 @ F,0,0,1,0,0.052916667,0,1 @ F,0,0,1,0,0.052916667,0,1 @ F,0,0,1,0,0.052916667,0,1 @ F,0,0,1,0,0.052916667,0,1 @ F,0,0,1,0,0.052916667,0,1 @ F,0,0,1,0,0.052916667,0,1 @ F,0,0,1,0,0.052916667,0,1 @ F,0,0,1,0,0.052916667,0,1 @ F,0,0,1,0,0.052916667,0,1 @ F,0,0,1,0,0.041564248,0,1 @ F,0,0,1,0,0.052916667,0,1 @ F,0,0,1,0,0.052916667,0,1 @ F,0,0,1,0,0.052916667,0,1 @ F,0,0,1,0,0.052916667,0,1 @ F,0,0,1,0,0.052916667,0,1 @ F,0,0,1,0,0.052916667,0,1 @ F,0,0,1,0,0.052916667,0,1 @ F,0,0,1,0,0.052916667,0,1 @ F,0,0,1,0,0.052916667,0,1 @ F,0,0,1,0,0.052916667,0,1 @ F,0,0,1,0,0.052916667,0,1 @ F,0,0,1,0,0.052916667,0,1 @ F,0,0,1,0,0.052916667,0,1 | F,0,0,1,0,0.052916667,0,1 @ F,0,0,1,0,0.052916667,0,1 @ F,0,0,1,0,0.052916667,0,1 @ F,0,0,1,0,0.052916667,0,1 @ F,0,0,1,0,0.052916667,0,1 @ F,0,0,1,0,0.052916667,0,1 @ F,0,0,1,0,0.052916667,0,1 @ F,0,0,1,0,0.052916667,0,1 @ F,0,0,1,0,0.052916667,0,1 @ F,0,0,1,0,0.052916667,0,1 @ F,0,0,1,0,0.052916667,0,1 @ F,0,0,1,0,0.052916667,0,1 @ F,0,0,1,0,0.052916667,0,1 @ F,0,0,1,0,0.052916667,0,1 @ F,0,0,1,0,0.052916667,0,1 @ F,0,0,1,0,0.052916667,0,1 @ F,0,0,1,0,0.052916667,0,1 @ F,0,0,1,0,0.052916667,0,1 @ F,0,0,1,0,0.052916667,0,1 @ F,0,0,1,0,0.052916667,0,1 @ F,0,0,1,0,0.052916667,0,1 @ F,0,0,1,0,0.052916667,0,1 @ F,0,0,1,0,0.052916667,0,1 @ F,0,0,1,0,0.052916667,0,1 @ F,0,0,1,0,0.052916667,0,1 @ F,0,0,1,0,0.052916667,0,1 @ F,0,0,1,0,0.052916667,0,1 @ F,0,0,1,0,0.052916667,0,1 @ F,0,0,1,0,0.052916667,0,1 @ F,0,0,1,0,0.052916667,0,1 @ F,0,0,1,0,0.052916667,0,1 @ F,0,0,1,0,0.052916667,0,1 @ F,0,0,1,0,0.052916667,0,1 @ F,0,0,1,0,0.052916667,0,1 @ F,0,0,1,0,0.052916667,0,1 @ F,0,0,1,0,0.052916667,0,1 @ F,0,0,1,0,0.052916667,0,1 @ F,0,0,1,0,0.052916667,0,1 @ F,0,0,1,0,0.052916667,0,1 @ F,0,0,1,0,0.052916667,0,1 @ F,0,0,1,0,0,0,1 @ F,0,0,1,0,0.052916667,0,1 | F,0,0,1,0,0.052916667,0,1 @ F,0,0,1,0,0.052916667,0,1 @ F,0,0,1,0,0.052916667,0,1 @ F,0,0,1,0,0.052916667,0,1 @ F,0,0,1,0,0.052916667,0,1 | F,0,0,1,0,0.052916667,0,1 @ F,0,0,1,0,0.052916667,0,1 @ F,0,0,1,0,0.052916667,0,1 @ F,0,0,1,0,0.052916667,0,1 @ F,0,0,1,0,0.052916667,0,1 @ F,0,0,1,0,0.052916667,0,1 @ F,0,0,1,0,0.052916667,0,1 @ F,0,0,1,0,0.052916667,0,1 @ F,0,0,1,0,0.052916667,0,1 @ F,0,0,1,0,0.052916667,0,1 @ F,0,0,1,0,0.052916667,0,1 @ F,0,0,1,0,0.052916667,0,1 @ F,0,0,1,0,0.052916667,0,1 @ F,0,0,1,0,0.052916667,0,1 @ F,0,0,1,0,0.052916667,0,1 @ F,0,0,1,0,0.052916667,0,1 @ F,0,0,1,0,0.052916667,0,1 | F,0,0,1,0,0.052916667,0,1 @ F,0,0,1,0,0.052916667,0,1 @ F,0,0,1,0,0.052916667,0,1 @ F,0,0,1,0,0.052916667,0,1 @ F,0,0,1,0,0.052916667,0,1 @ F,0,0,1,0,0.052916667,0,1 | F,0,0,1,0,0.052916667,0,1 @ F,0,0,1,0,0.052916667,0,1 @ F,0,0,1,0,0.052916667,0,1 @ F,0,0,1,0,0.052916667,0,1 @ F,0,0,1,0,0.052916667,0,1"
       radius="0.2"
       unit="px"
       method="auto"
       mode="F"
       chamfer_steps="1"
       flexible="false"
       use_knot_distance="true"
       apply_no_radius="true"
       apply_with_radius="true"
       only_selected="false"
       hide_knots="false" />
  </defs>
  <g
     inkscape:label="Layer 1"
     inkscape:groupmode="layer"
     id="layer1"
     transform="translate(-63.764583,-81.756244)">
    <g
       id="g14"
       inkscape:label="Papirus18"
       transform="matrix(9.3330969,0,0,9.3330969,-45.215602,-593.44277)"
       style="display:inline">
      <rect
         style="display:none;opacity:0.2;fill:#000000;fill-opacity:1;fill-rule:evenodd;stroke:#ffffff;stroke-width:0"
         id="rect1"
         width="5.999999"
         height="5.999999"
         x="12.105328"
         y="72.823242"
         ry="0.50399154" />
      <rect
         style="display:none;opacity:1;fill:#23252e;fill-opacity:1;fill-rule:evenodd;stroke:#ffffff;stroke-width:0"
         id="rect9"
         width="5.999999"
         height="5.999999"
         x="12.105328"
         y="72.723244"
         ry="0.50399154" />
      <path
         id="rect2"
         style="display:none;opacity:0.2;fill:#ffffff;fill-opacity:1;fill-rule:evenodd;stroke:#ffffff;stroke-width:0"
         d="m 12.609172,72.723244 c -0.279211,0 -0.503845,0.22515 -0.503845,0.504362 v 0.09974 c 0,-0.279212 0.224634,-0.503845 0.503845,-0.503845 h 4.991944 c 0.279211,0 0.504362,0.224633 0.504362,0.503845 v -0.09974 c 0,-0.279212 -0.225151,-0.504362 -0.504362,-0.504362 z" />
      <path
         id="path13"
         style="color:#000000;-inkscape-font-specification:Ubuntu;display:inline;opacity:0.5;fill:#000000;fill-rule:evenodd;-inkscape-stroke:none"
         d="m 13.341747,73.73057 c 0,8.28e-4 -0.004,0.03453 -0.0088,0.07529 -0.01185,0.100953 -0.02339,0.203949 -0.03471,0.30922 -0.0031,0.02906 -0.0081,0.07618 -0.01117,0.105241 -0.01219,0.116113 -0.0242,0.234507 -0.0359,0.355655 -0.0028,0.02909 -0.007,0.07628 -0.0094,0.10541 -0.01754,0.211629 -0.0351,0.430445 -0.05245,0.650537 -0.0023,0.02913 -0.006,0.07637 -0.0083,0.105504 -0.0031,0.03849 -0.0061,0.07646 -0.0092,0.115157 -0.0023,0.02913 -0.0058,0.07639 -0.0078,0.105546 -0.0055,0.08015 -0.01099,0.161055 -0.01626,0.24218 -0.0019,0.02916 -0.0049,0.07645 -0.0068,0.105616 -0.001,0.01613 -0.0021,0.03222 -0.0031,0.04837 -0.0019,0.02917 -0.0048,0.07646 -0.0065,0.105631 -0.0082,0.134941 -0.01584,0.270859 -0.02334,0.408008 -0.0016,0.02918 -0.0042,0.07649 -0.0058,0.105676 -0.01438,0.264297 -0.02757,0.526827 -0.03965,0.78882 -0.0013,0.02919 0.02127,0.05286 0.05049,0.05286 h 0.431601 c 0.02923,0 0.05379,-0.02368 0.05486,-0.05288 0.0068,-0.185231 0.01361,-0.370302 0.02118,-0.554156 0.0012,-0.0292 0.0032,-0.07654 0.0044,-0.105741 0.0094,-0.224917 0.01911,-0.448595 0.03025,-0.671495 0.0015,-0.02919 0.0039,-0.07651 0.005,-0.105713 3.29e-4,-0.0085 6.47e-4,-0.01704 9.75e-4,-0.02554 0.0011,-0.0292 0.0037,-0.07651 0.0057,-0.105669 0.0023,-0.03314 0.0048,-0.06629 0.0071,-0.09904 0.0021,-0.02915 0.005,-0.07644 0.0068,-0.105605 0.0047,-0.07532 0.01147,-0.178195 0.01775,-0.259798 0.0022,-0.02914 0.006,-0.07637 0.0082,-0.105513 0.01174,-0.158535 0.02361,-0.313052 0.03653,-0.465013 0.0025,-0.02912 0.0064,-0.07634 0.0087,-0.105474 l 0.0051,-0.06451 a 0.01545501,0.01545501 168.2388 0 1 0.02905,-0.006 l 0.03035,0.05697 c 0.01374,0.02579 0.036,0.06762 0.04983,0.09337 0.005,0.0093 0.01009,0.01884 0.01554,0.02923 0.01358,0.02587 0.02411,0.04803 0.02411,0.04919 l 0.0057,0.0098 c 0,0.0021 0,0.0021 0,0.0021 0.03967,0.07457 0.0548,0.103096 0.07007,0.132668 0.01341,0.02596 0.03458,0.06835 0.0475,0.09457 0.01954,0.03967 0.03943,0.08078 0.05948,0.123258 0.01248,0.02643 0.04611,0.04838 0.07533,0.04893 l 0.419718,0.0079 a 2.9208766,2.9208766 1.0380216 0 0 0.05501,9.97e-4 c -0.08158,-0.175682 -0.21209,-0.455424 -0.291576,-0.620156 -0.0127,-0.02631 -0.03353,-0.06887 -0.04649,-0.09506 -0.04252,-0.08593 -0.08552,-0.17056 -0.128075,-0.253277 -0.01337,-0.02599 -0.03511,-0.06809 -0.04868,-0.09397 -0.04076,-0.07773 -0.08082,-0.151323 -0.119811,-0.221554 -0.01419,-0.02555 -0.03733,-0.0669 -0.05173,-0.09233 -0.03577,-0.06319 -0.07065,-0.123279 -0.104712,-0.179955 -0.01506,-0.02505 -0.05115,-0.04523 -0.08038,-0.04523 z m 3.145268,0.04791 0.230513,0.491735 c 0.0124,0.02646 0.03274,0.06929 0.04545,0.09565 0.08679,0.179935 0.393841,0.815701 0.491558,1.018331 0.01267,0.02627 -7.63e-4,0.04758 -0.02999,0.04758 h -0.04248 -0.605648 -0.29869 c -0.02923,0 -0.06313,0.02138 -0.07577,0.04773 -0.02951,0.0615 -0.06026,0.125187 -0.09114,0.189327 -0.01268,0.02633 -0.03311,0.06908 -0.04528,0.09566 -0.0059,0.01295 -0.01177,0.02582 -0.0178,0.03897 -0.01218,0.02656 -0.03294,0.06916 -0.04507,0.09575 7.74e-4,1e-6 0.02311,0.0013 0.05234,0.0013 h 0.450721 0.611332 0.107487 c 0.02923,0 0.04298,0.02151 0.03059,0.04798 -0.03603,0.077 -0.07271,0.153538 -0.1094,0.230331 -0.0126,0.02637 -0.03356,0.06886 -0.04675,0.09494 -0.144556,0.285919 -0.280436,0.576028 -0.416564,0.866252 -0.01241,0.02645 -0.03253,0.06934 -0.04495,0.0958 l -0.109034,0.232337 a 0.03362061,0.03362061 57.570157 0 0 0.03044,0.0479 l 0.389655,0 c 0.02295,0 0.05125,-0.01589 0.0628,-0.03573 0.01995,-0.03426 0.03912,-0.06896 0.05837,-0.103611 0.01419,-0.02554 0.03807,-0.06646 0.05237,-0.09194 0.01843,-0.03286 0.036,-0.06619 0.05374,-0.09942 0.01375,-0.02577 0.03623,-0.06746 0.04987,-0.09331 0.0051,-0.0097 0.01026,-0.01946 0.01541,-0.02928 0.01357,-0.02588 0.03533,-0.06798 0.04868,-0.09397 0.04256,-0.08285 0.08535,-0.167427 0.127998,-0.253312 0.013,-0.02618 0.03402,-0.06864 0.0468,-0.09492 0.0434,-0.08921 0.0851,-0.179435 0.127633,-0.269539 0.01247,-0.02642 0.03308,-0.06908 0.0458,-0.0954 0.08715,-0.180333 0.167595,-0.357951 0.250215,-0.540902 0.01203,-0.02663 0.01214,-0.06986 2.3e-4,-0.09655 -0.100363,-0.224917 -0.1467,-0.325048 -0.250338,-0.542676 -0.01257,-0.02639 -0.03291,-0.06918 -0.04545,-0.09558 -0.04244,-0.08932 -0.08527,-0.178756 -0.128383,-0.26786 -0.01273,-0.02631 -0.03356,-0.06887 -0.04655,-0.09504 -0.04264,-0.08586 -0.08542,-0.170431 -0.127997,-0.253314 -0.01335,-0.026 -0.0351,-0.06809 -0.04853,-0.09405 -0.01234,-0.02385 -0.02458,-0.0474 -0.03673,-0.07055 -0.01358,-0.02588 -0.03591,-0.06767 -0.05005,-0.09325 -0.01106,-0.02003 -0.02215,-0.03977 -0.0331,-0.05927 -0.01431,-0.02548 -0.03734,-0.06689 -0.05167,-0.09235 -0.0093,-0.0166 -0.01862,-0.03295 -0.02783,-0.04906 -0.01451,-0.02537 -0.03834,-0.06633 -0.0533,-0.09143 -0.0072,-0.01211 -0.01439,-0.02403 -0.02154,-0.03584 -0.01514,-0.025 -0.05124,-0.04528 -0.08047,-0.04541 l -0.369039,-0.0016 a 0.03347312,0.03347312 122.56798 0 0 -0.03045,0.04768 z m -0.115596,0.08753 c -0.01732,0.02926 -0.03471,0.05882 -0.05243,0.08978 -0.01452,0.02536 -0.03753,0.06678 -0.05157,0.09241 -0.03844,0.07015 -0.07755,0.143672 -0.118017,0.221405 -0.0135,0.02592 -0.03524,0.06802 -0.0486,0.09402 -0.0425,0.08274 -0.08532,0.16735 -0.127998,0.253314 -0.013,0.02618 -0.03396,0.06867 -0.04673,0.09496 -0.04292,0.08829 -0.08516,0.178357 -0.127885,0.269408 -0.01241,0.02646 -0.03269,0.06928 -0.04521,0.09569 -0.04299,0.09067 -0.0856,0.182091 -0.127415,0.273546 -0.02404,0.05175 -0.02404,0.05175 -0.02404,0.05175 -0.0021,0.0041 -0.0021,0.0041 -0.0021,0.0041 v 0.0021 c -0.03748,0.08224 -0.05283,0.116344 -0.06825,0.15068 -0.01197,0.02666 -0.03135,0.0699 -0.04321,0.09661 -0.0097,0.02186 -0.01937,0.04372 -0.02898,0.06549 -0.01179,0.02674 -0.02226,0.04843 -0.02342,0.04843 -0.0377,0.08446 -0.05279,0.118193 -0.06826,0.152739 -0.01195,0.02667 -0.03136,0.06989 -0.04328,0.09658 -0.04067,0.09108 -0.08104,0.182718 -0.119164,0.268694 -0.01185,0.02672 -0.03129,0.06992 -0.0434,0.09653 l -0.0032,0.007 a 0.02341322,0.02341322 0.60034086 0 1 -0.04282,-4.48e-4 l -0.0026,-0.0061 c -0.01154,-0.02685 -0.03052,-0.07026 -0.04244,-0.09695 -0.03425,-0.07667 -0.07096,-0.158032 -0.107612,-0.239319 -0.01201,-0.02664 -0.04544,-0.04824 -0.07466,-0.04824 h -0.0032 -0.103557 -0.131051 -0.05502 -0.115031 c -0.02923,0 -0.0427,0.02137 -0.03026,0.04782 0.03254,0.06921 0.06425,0.138805 0.09596,0.208399 0.01212,0.02659 0.03152,0.06982 0.04332,0.09656 0.05503,0.124783 0.106866,0.243196 0.155003,0.354168 0.01163,0.02681 0.02103,0.0495 0.02103,0.05066 0.06506,0.142467 0.101891,0.22532 0.131858,0.295418 0.01149,0.02687 0.04428,0.04875 0.0735,0.04875 h 0.333416 c 0.02923,0 0.06202,-0.02187 0.07336,-0.04881 0.02942,-0.06994 0.06454,-0.152174 0.105341,-0.246775 0.01157,-0.02684 0.02098,-0.04952 0.02098,-0.05068 0.07294,-0.159388 0.126114,-0.277469 0.18167,-0.402747 0.01185,-0.02672 0.03098,-0.07006 0.04296,-0.09672 0.04117,-0.09166 0.08461,-0.184545 0.128248,-0.278334 0.01233,-0.02649 0.03213,-0.06954 0.04387,-0.0963 0.0036,-0.0083 0.0073,-0.01656 0.01093,-0.0249 0.01178,-0.02674 0.03198,-0.0696 0.04464,-0.09594 0.0063,-0.01315 0.01252,-0.02601 0.01876,-0.03897 0.01268,-0.02633 0.03315,-0.06906 0.0457,-0.09546 0.113374,-0.23846 0.170633,-0.36346 0.224032,-0.475148 0.0126,-0.02636 0.03329,-0.06898 0.04616,-0.09522 0.03632,-0.07406 0.07156,-0.143687 0.117375,-0.228503 0.01389,-0.02571 0.03683,-0.06717 0.05102,-0.09272 l 0.0287,-0.05166 a 0.01604967,0.01604967 12.182342 0 1 0.03003,0.0065 l 0.0048,0.05834 c 0.0024,0.02913 0.0064,0.07634 0.0089,0.10546 0.01177,0.138689 0.02253,0.281482 0.03299,0.425733 0.0021,0.02915 0.0275,0.05278 0.05673,0.05278 h 0.400079 c 0.02923,0 0.05087,-0.0236 0.04784,-0.05267 -6.12e-4,-0.0059 -0.0012,-0.01176 -0.0018,-0.01765 -0.003,-0.02906 -0.01495,-0.07416 -0.02747,-0.100564 -0.0024,-0.005 -0.0047,-0.0099 -0.007,-0.01464 -0.208061,-0.435189 -0.392943,-0.806431 -0.405265,-0.832932 l -0.206867,-0.44493 c -0.01232,-0.0265 -0.03441,-0.02761 -0.0493,-0.0025 z m -4.070956,1.618669 v 0.362871 a 0.05291667,0.05291667 45 0 0 0.05292,0.05292 h 0.64244 c 0.02923,0 0.05441,-0.02364 0.05626,-0.05281 0.0042,-0.06589 0.0084,-0.131991 0.01274,-0.197216 0.0019,-0.02916 0.0054,-0.07642 0.0078,-0.105545 0.0016,-0.0203 0.0033,-0.04037 0.0049,-0.06039 0.0024,-0.02913 -0.0194,-0.05274 -0.04863,-0.05274 l -0.67551,0 a 0.05291667,0.05291667 135 0 0 -0.05292,0.05292 z m 1.494341,-1.34e-4 c -0.0049,0.06953 -0.0096,0.139396 -0.01411,0.210665 -0.0019,0.02917 -0.0047,0.07646 -0.0062,0.105652 -7.58e-4,0.0155 -0.0015,0.03113 -0.0022,0.04676 -0.0014,0.02919 0.02097,0.05284 0.05019,0.05284 h 0.421265 0.103557 0.19513 0.05502 0.181694 0.101497 0.280913 c 0.106863,0 0.117355,-0.02163 0.129104,-0.04839 0.01105,-0.02517 0.02204,-0.0504 0.03366,-0.07685 0.01176,-0.02675 0.03094,-0.07008 0.04279,-0.09679 0.02948,-0.0664 0.05933,-0.132342 0.08947,-0.19852 0.01211,-0.0266 -0.0017,-0.04815 -0.03096,-0.04815 H 15.304606 15.203109 14.689652 14.134647 13.85148 c -0.02923,0 -0.05462,0.02363 -0.05668,0.05278 z m 2.81912,0.56851 c 0.01233,0.249822 0.0244,0.49966 0.0358,0.74953 0.0013,0.0292 0.0034,0.07653 0.0046,0.105734 0.0011,0.02703 0.01157,0.02729 0.02364,6.71e-4 0.076,-0.167586 0.157126,-0.332388 0.242488,-0.495149 0.01357,-0.02588 0.03526,-0.06801 0.04794,-0.09434 0.0137,-0.02844 0.02755,-0.05782 0.04189,-0.08812 0.0125,-0.02641 0.03294,-0.06916 0.04564,-0.09548 0.0138,-0.02858 0.02804,-0.05799 0.04232,-0.08792 0.01258,-0.02638 -0.0011,-0.04784 -0.03032,-0.04784 l -0.403663,5.2e-5 c -0.02923,4e-6 -0.05175,0.02367 -0.0503,0.05286 z m 0.569449,1.325871 c -0.03371,0.06139 -0.04181,0.07623 -0.04992,0.09089 -0.01415,0.02556 -0.0024,0.04605 0.02687,0.04605 h 0.0017 c 0.02923,0 0.05167,-0.02366 0.05004,-0.05284 -0.0013,-0.02352 -0.0027,-0.04705 -0.004,-0.07054 -0.0016,-0.02918 -0.003,-0.05283 -0.003,-0.05283 z"
         sodipodi:nodetypes="ccscccsccccccccccccccccscccsssccccccccccccccscccscscccccsssscccsssccccccccscccccccccsccccccscccscccccccccccccccccccccccccccccccccccccsccsccccs"
         inkscape:path-effect="#path-effect14"
         inkscape:original-d="m 13.341747,73.73057 v 0.0015 c -0.01693,0.14104 -0.03322,0.286033 -0.04909,0.435632 -0.01587,0.149598 -0.03146,0.302905 -0.04651,0.460954 -0.0204,0.24472 -0.04085,0.499828 -0.06098,0.756026 -0.0059,0.07464 -0.01167,0.145289 -0.01757,0.220659 -0.0078,0.114663 -0.01585,0.231109 -0.02325,0.347782 -0.0033,0.05182 -0.0066,0.101986 -0.0098,0.153996 -0.01046,0.169557 -0.02005,0.34061 -0.02945,0.513664 -0.01648,0.299953 -0.03143,0.597528 -0.04496,0.894519 h 0.537435 c 0.0081,-0.220649 0.01612,-0.441214 0.02532,-0.659908 0.0109,-0.260541 0.02196,-0.519374 0.03514,-0.777214 0.0024,-0.04493 0.0033,-0.08745 0.0057,-0.131258 0.0038,-0.06843 0.0099,-0.137889 0.01395,-0.204639 0.0053,-0.08589 0.01642,-0.26204 0.02532,-0.365352 0.01438,-0.195557 0.0288,-0.384827 0.04496,-0.570508 l 0.01344,-0.170015 0.0801,0.150378 c 0.02193,0.04162 0.03725,0.06829 0.0646,0.12299 v 0.0021 l 0.0057,0.0098 c 2.57e-4,5e-4 -2.57e-4,0.0016 0,0.0021 0.0301,0.05681 0.06196,0.115606 0.09405,0.179834 0.03416,0.06838 0.06963,0.141362 0.10542,0.218592 l 0.525532,0.0099 h 0.0021 c -0.04269,-0.09225 -0.229514,-0.49385 -0.314691,-0.667741 -0.05815,-0.118704 -0.11751,-0.235156 -0.1757,-0.347783 -0.05829,-0.112815 -0.115307,-0.216989 -0.170015,-0.314709 -0.0547,-0.09771 -0.10732,-0.188491 -0.15813,-0.271301 z m 3.122807,0 0.275435,0.587561 c 0.0064,0.01365 0.473737,0.981199 0.537478,1.113643 h -0.148311 -0.605648 -0.29869 c -0.04343,0.09088 -0.09034,0.187787 -0.136943,0.284737 -0.022,0.04617 -0.03939,0.08648 -0.06253,0.134875 -0.0078,0.01667 -0.01585,0.03278 -0.02325,0.04909 h 0.556555 0.611332 0.107487 c -0.05054,0.109224 -0.102659,0.217245 -0.15452,0.326061 -0.161556,0.316861 -0.311815,0.639162 -0.462986,0.961328 l -0.153996,0.328145 h 0.484136 c 0.03695,-0.0608 0.07045,-0.123586 0.10542,-0.185517 0.03769,-0.0625 0.07033,-0.127817 0.10542,-0.191718 0.0215,-0.0406 0.04265,-0.08051 0.0646,-0.12299 0.05832,-0.112889 0.11721,-0.229168 0.1757,-0.347782 0.05973,-0.120311 0.115503,-0.242876 0.173633,-0.364836 0.103916,-0.21261 0.197473,-0.420491 0.295121,-0.636716 -0.12342,-0.27713 -0.166767,-0.370642 -0.294652,-0.638781 -0.05738,-0.121106 -0.11552,-0.242575 -0.17415,-0.363285 -0.05847,-0.118563 -0.11735,-0.234838 -0.1757,-0.347783 -0.02918,-0.05646 -0.05765,-0.111701 -0.08578,-0.164331 -0.02803,-0.05246 -0.05697,-0.102898 -0.08423,-0.151928 -0.02725,-0.04902 -0.05396,-0.09616 -0.0801,-0.141077 -0.02595,-0.0446 -0.05086,-0.08568 -0.07596,-0.126607 z m -0.06615,0.08992 c -0.03471,0.05858 -0.06913,0.116104 -0.10542,0.181384 -0.05429,0.09766 -0.10959,0.201759 -0.167948,0.314709 -0.0582,0.112656 -0.11715,0.229034 -0.1757,0.347783 -0.05855,0.118751 -0.115463,0.241013 -0.173633,0.364835 -0.05826,0.122145 -0.115963,0.245904 -0.172083,0.369487 -4e-4,7e-4 -0.0014,0.002 -0.0021,0.0036 -8e-4,0.0021 -0.0015,0.0028 -0.0021,0.0041 v 0.0021 c -0.03039,0.06616 -0.05982,0.131925 -0.08992,0.198955 -0.02422,0.05415 -0.04827,0.108644 -0.07183,0.162264 h -0.0021 c -0.0327,0.07329 -0.05942,0.133091 -0.08992,0.201021 -0.05566,0.123984 -0.111404,0.251061 -0.162264,0.365352 l -0.04703,0.103353 -0.04444,-0.103353 c -0.04669,-0.105058 -0.09935,-0.221496 -0.150896,-0.335896 h -0.109037 -0.05064 -0.183968 -0.0021 -0.167948 c 0.04816,0.100854 0.09417,0.202702 0.140562,0.30437 0.07125,0.161265 0.137394,0.312383 0.197404,0.451135 v 0.0021 c 0.06353,0.138313 0.114965,0.254205 0.152445,0.344165 h 0.43925 c 0.03759,-0.09022 0.08653,-0.204882 0.146761,-0.344165 v -0.0021 c 0.06395,-0.139179 0.131578,-0.289283 0.203088,-0.451135 0.05427,-0.122825 0.113323,-0.247969 0.172083,-0.374654 0.01844,-0.04012 0.03479,-0.07971 0.05426,-0.12144 0.02304,-0.04819 0.04243,-0.08826 0.06459,-0.134359 0.14607,-0.306465 0.205232,-0.43773 0.269733,-0.57059 0.05174,-0.106539 0.09666,-0.196579 0.1659,-0.322525 l 0.0801,-0.144178 0.01344,0.163815 c 0.01503,0.171868 0.02836,0.350664 0.04134,0.531233 h 0.505913 c -0.0034,-0.04098 -0.0086,-0.08169 -0.01189,-0.12299 -0.0099,-0.0213 -0.02046,-0.04365 -0.02946,-0.06253 -0.381842,-0.798679 0.240036,0.535269 -0.382955,-0.784948 z m -4.097941,1.611271 v 0.468705 h 0.748274 c 0.0064,-0.101072 0.01284,-0.203334 0.01964,-0.302824 0.0045,-0.05691 0.009,-0.111051 0.01343,-0.165881 z m 1.4981,0 c -0.0075,0.104077 -0.01449,0.208296 -0.02119,0.31626 -0.003,0.04939 -0.0049,0.101615 -0.0078,0.152445 h 0.527099 0.05064 0.248047 0.0021 0.234611 0.04858 0.33383 0.05478 c 0.02543,-0.05694 0.04835,-0.110573 0.07648,-0.173633 0.04349,-0.09897 0.08786,-0.196582 0.132808,-0.295072 h -0.226859 -0.04858 -0.566374 -0.555005 z m 2.812748,0.568441 c 0.01411,0.285054 0.02792,0.570128 0.04081,0.855244 0.0015,0.0337 0.0027,0.06796 0.0041,0.101802 0.08939,-0.200373 0.186194,-0.396691 0.288887,-0.59021 0.02843,-0.05708 0.05669,-0.118271 0.08785,-0.183451 0.02756,-0.05767 0.05812,-0.119791 0.08785,-0.183451 z m 0.593762,1.339453 c -0.0071,0.0129 -0.0147,0.0266 -0.0217,0.03927 -0.0263,0.0473 -0.0505,0.09311 -0.07597,0.136942 h 0.107487 c -0.0031,-0.0587 -0.0066,-0.117646 -0.0098,-0.176216 z"
         transform="translate(0,0.09967638)" />
      <path
         id="path15"
         style="color:#000000;-inkscape-font-specification:Ubuntu;display:inline;fill:#ffffff;fill-rule:evenodd;-inkscape-stroke:none"
         d="m 13.341747,73.73057 c 0,8.28e-4 -0.004,0.03453 -0.0088,0.07529 -0.01185,0.100953 -0.02339,0.203949 -0.03471,0.30922 -0.0031,0.02906 -0.0081,0.07618 -0.01117,0.105241 -0.01219,0.116113 -0.0242,0.234507 -0.0359,0.355655 -0.0028,0.02909 -0.007,0.07628 -0.0094,0.10541 -0.01754,0.211629 -0.0351,0.430445 -0.05245,0.650537 -0.0023,0.02913 -0.006,0.07637 -0.0083,0.105504 -0.0031,0.03849 -0.0061,0.07646 -0.0092,0.115157 -0.0023,0.02913 -0.0058,0.07639 -0.0078,0.105546 -0.0055,0.08015 -0.01099,0.161055 -0.01626,0.24218 -0.0019,0.02916 -0.0049,0.07645 -0.0068,0.105616 -0.001,0.01613 -0.0021,0.03222 -0.0031,0.04837 -0.0019,0.02917 -0.0048,0.07646 -0.0065,0.105631 -0.0082,0.134941 -0.01584,0.270859 -0.02334,0.408008 -0.0016,0.02918 -0.0042,0.07649 -0.0058,0.105676 -0.01438,0.264297 -0.02757,0.526827 -0.03965,0.78882 -0.0013,0.02919 0.02127,0.05286 0.05049,0.05286 h 0.431601 c 0.02923,0 0.05379,-0.02368 0.05486,-0.05288 0.0068,-0.185231 0.01361,-0.370302 0.02118,-0.554156 0.0012,-0.0292 0.0032,-0.07654 0.0044,-0.105741 0.0094,-0.224917 0.01911,-0.448595 0.03025,-0.671495 0.0015,-0.02919 0.0039,-0.07651 0.005,-0.105713 3.29e-4,-0.0085 6.47e-4,-0.01704 9.75e-4,-0.02554 0.0011,-0.0292 0.0037,-0.07651 0.0057,-0.105669 0.0023,-0.03314 0.0048,-0.06629 0.0071,-0.09904 0.0021,-0.02915 0.005,-0.07644 0.0068,-0.105605 0.0047,-0.07532 0.01147,-0.178195 0.01775,-0.259798 0.0022,-0.02914 0.006,-0.07637 0.0082,-0.105513 0.01174,-0.158535 0.02361,-0.313052 0.03653,-0.465013 0.0025,-0.02912 0.0064,-0.07634 0.0087,-0.105474 l 0.0051,-0.06451 a 0.01545501,0.01545501 168.2388 0 1 0.02905,-0.006 l 0.03035,0.05697 c 0.01374,0.02579 0.036,0.06762 0.04983,0.09337 0.005,0.0093 0.01009,0.01884 0.01554,0.02923 0.01358,0.02587 0.02411,0.04803 0.02411,0.04919 l 0.0057,0.0098 c 0,0.0021 0,0.0021 0,0.0021 0.03967,0.07457 0.0548,0.103096 0.07007,0.132668 0.01341,0.02596 0.03458,0.06835 0.0475,0.09457 0.01954,0.03967 0.03943,0.08078 0.05948,0.123258 0.01248,0.02643 0.04611,0.04838 0.07533,0.04893 l 0.419718,0.0079 a 2.9208766,2.9208766 1.0380216 0 0 0.05501,9.97e-4 c -0.08158,-0.175682 -0.21209,-0.455424 -0.291576,-0.620156 -0.0127,-0.02631 -0.03353,-0.06887 -0.04649,-0.09506 -0.04252,-0.08593 -0.08552,-0.17056 -0.128075,-0.253277 -0.01337,-0.02599 -0.03511,-0.06809 -0.04868,-0.09397 -0.04076,-0.07773 -0.08082,-0.151323 -0.119811,-0.221554 -0.01419,-0.02555 -0.03733,-0.0669 -0.05173,-0.09233 -0.03577,-0.06319 -0.07065,-0.123279 -0.104712,-0.179955 -0.01506,-0.02505 -0.05115,-0.04523 -0.08038,-0.04523 z m 3.145268,0.04791 0.230513,0.491735 c 0.0124,0.02646 0.03274,0.06929 0.04545,0.09565 0.08679,0.179935 0.393841,0.815701 0.491558,1.018331 0.01267,0.02627 -7.63e-4,0.04758 -0.02999,0.04758 h -0.04248 -0.605648 -0.29869 c -0.02923,0 -0.06313,0.02138 -0.07577,0.04773 -0.02951,0.0615 -0.06026,0.125187 -0.09114,0.189327 -0.01268,0.02633 -0.03311,0.06908 -0.04528,0.09566 -0.0059,0.01295 -0.01177,0.02582 -0.0178,0.03897 -0.01218,0.02656 -0.03294,0.06916 -0.04507,0.09575 7.74e-4,1e-6 0.02311,0.0013 0.05234,0.0013 h 0.450721 0.611332 0.107487 c 0.02923,0 0.04298,0.02151 0.03059,0.04798 -0.03603,0.077 -0.07271,0.153538 -0.1094,0.230331 -0.0126,0.02637 -0.03356,0.06886 -0.04675,0.09494 -0.144556,0.285919 -0.280436,0.576028 -0.416564,0.866252 -0.01241,0.02645 -0.03253,0.06934 -0.04495,0.0958 l -0.109034,0.232337 a 0.03362061,0.03362061 57.570157 0 0 0.03044,0.0479 l 0.389655,0 c 0.02295,0 0.05125,-0.01589 0.0628,-0.03573 0.01995,-0.03426 0.03912,-0.06896 0.05837,-0.103611 0.01419,-0.02554 0.03807,-0.06646 0.05237,-0.09194 0.01843,-0.03286 0.036,-0.06619 0.05374,-0.09942 0.01375,-0.02577 0.03623,-0.06746 0.04987,-0.09331 0.0051,-0.0097 0.01026,-0.01946 0.01541,-0.02928 0.01357,-0.02588 0.03533,-0.06798 0.04868,-0.09397 0.04256,-0.08285 0.08535,-0.167427 0.127998,-0.253312 0.013,-0.02618 0.03402,-0.06864 0.0468,-0.09492 0.0434,-0.08921 0.0851,-0.179435 0.127633,-0.269539 0.01247,-0.02642 0.03308,-0.06908 0.0458,-0.0954 0.08715,-0.180333 0.167595,-0.357951 0.250215,-0.540902 0.01203,-0.02663 0.01214,-0.06986 2.3e-4,-0.09655 -0.100363,-0.224917 -0.1467,-0.325048 -0.250338,-0.542676 -0.01257,-0.02639 -0.03291,-0.06918 -0.04545,-0.09558 -0.04244,-0.08932 -0.08527,-0.178756 -0.128383,-0.26786 -0.01273,-0.02631 -0.03356,-0.06887 -0.04655,-0.09504 -0.04264,-0.08586 -0.08542,-0.170431 -0.127997,-0.253314 -0.01335,-0.026 -0.0351,-0.06809 -0.04853,-0.09405 -0.01234,-0.02385 -0.02458,-0.0474 -0.03673,-0.07055 -0.01358,-0.02588 -0.03591,-0.06767 -0.05005,-0.09325 -0.01106,-0.02003 -0.02215,-0.03977 -0.0331,-0.05927 -0.01431,-0.02548 -0.03734,-0.06689 -0.05167,-0.09235 -0.0093,-0.0166 -0.01862,-0.03295 -0.02783,-0.04906 -0.01451,-0.02537 -0.03834,-0.06633 -0.0533,-0.09143 -0.0072,-0.01211 -0.01439,-0.02403 -0.02154,-0.03584 -0.01514,-0.025 -0.05124,-0.04528 -0.08047,-0.04541 l -0.369039,-0.0016 a 0.03347312,0.03347312 122.56798 0 0 -0.03045,0.04768 z m -0.115596,0.08753 c -0.01732,0.02926 -0.03471,0.05882 -0.05243,0.08978 -0.01452,0.02536 -0.03753,0.06678 -0.05157,0.09241 -0.03844,0.07015 -0.07755,0.143672 -0.118017,0.221405 -0.0135,0.02592 -0.03524,0.06802 -0.0486,0.09402 -0.0425,0.08274 -0.08532,0.16735 -0.127998,0.253314 -0.013,0.02618 -0.03396,0.06867 -0.04673,0.09496 -0.04292,0.08829 -0.08516,0.178357 -0.127885,0.269408 -0.01241,0.02646 -0.03269,0.06928 -0.04521,0.09569 -0.04299,0.09067 -0.0856,0.182091 -0.127415,0.273546 -0.02404,0.05175 -0.02404,0.05175 -0.02404,0.05175 -0.0021,0.0041 -0.0021,0.0041 -0.0021,0.0041 v 0.0021 c -0.03748,0.08224 -0.05283,0.116344 -0.06825,0.15068 -0.01197,0.02666 -0.03135,0.0699 -0.04321,0.09661 -0.0097,0.02186 -0.01937,0.04372 -0.02898,0.06549 -0.01179,0.02674 -0.02226,0.04843 -0.02342,0.04843 -0.0377,0.08446 -0.05279,0.118193 -0.06826,0.152739 -0.01195,0.02667 -0.03136,0.06989 -0.04328,0.09658 -0.04067,0.09108 -0.08104,0.182718 -0.119164,0.268694 -0.01185,0.02672 -0.03129,0.06992 -0.0434,0.09653 l -0.0032,0.007 a 0.02341322,0.02341322 0.60034086 0 1 -0.04282,-4.48e-4 l -0.0026,-0.0061 c -0.01154,-0.02685 -0.03052,-0.07026 -0.04244,-0.09695 -0.03425,-0.07667 -0.07096,-0.158032 -0.107612,-0.239319 -0.01201,-0.02664 -0.04544,-0.04824 -0.07466,-0.04824 h -0.0032 -0.103557 -0.131051 -0.05502 -0.115031 c -0.02923,0 -0.0427,0.02137 -0.03026,0.04782 0.03254,0.06921 0.06425,0.138805 0.09596,0.208399 0.01212,0.02659 0.03152,0.06982 0.04332,0.09656 0.05503,0.124783 0.106866,0.243196 0.155003,0.354168 0.01163,0.02681 0.02103,0.0495 0.02103,0.05066 0.06506,0.142467 0.101891,0.22532 0.131858,0.295418 0.01149,0.02687 0.04428,0.04875 0.0735,0.04875 h 0.333416 c 0.02923,0 0.06202,-0.02187 0.07336,-0.04881 0.02942,-0.06994 0.06454,-0.152174 0.105341,-0.246775 0.01157,-0.02684 0.02098,-0.04952 0.02098,-0.05068 0.07294,-0.159388 0.126114,-0.277469 0.18167,-0.402747 0.01185,-0.02672 0.03098,-0.07006 0.04296,-0.09672 0.04117,-0.09166 0.08461,-0.184545 0.128248,-0.278334 0.01233,-0.02649 0.03213,-0.06954 0.04387,-0.0963 0.0036,-0.0083 0.0073,-0.01656 0.01093,-0.0249 0.01178,-0.02674 0.03198,-0.0696 0.04464,-0.09594 0.0063,-0.01315 0.01252,-0.02601 0.01876,-0.03897 0.01268,-0.02633 0.03315,-0.06906 0.0457,-0.09546 0.113374,-0.23846 0.170633,-0.36346 0.224032,-0.475148 0.0126,-0.02636 0.03329,-0.06898 0.04616,-0.09522 0.03632,-0.07406 0.07156,-0.143687 0.117375,-0.228503 0.01389,-0.02571 0.03683,-0.06717 0.05102,-0.09272 l 0.0287,-0.05166 a 0.01604967,0.01604967 12.182342 0 1 0.03003,0.0065 l 0.0048,0.05834 c 0.0024,0.02913 0.0064,0.07634 0.0089,0.10546 0.01177,0.138689 0.02253,0.281482 0.03299,0.425733 0.0021,0.02915 0.0275,0.05278 0.05673,0.05278 h 0.400079 c 0.02923,0 0.05087,-0.0236 0.04784,-0.05267 -6.12e-4,-0.0059 -0.0012,-0.01176 -0.0018,-0.01765 -0.003,-0.02906 -0.01495,-0.07416 -0.02747,-0.100564 -0.0024,-0.005 -0.0047,-0.0099 -0.007,-0.01464 -0.208061,-0.435189 -0.392943,-0.806431 -0.405265,-0.832932 l -0.206867,-0.44493 c -0.01232,-0.0265 -0.03441,-0.02761 -0.0493,-0.0025 z m -4.070956,1.618669 v 0.362871 a 0.05291667,0.05291667 45 0 0 0.05292,0.05292 h 0.64244 c 0.02923,0 0.05441,-0.02364 0.05626,-0.05281 0.0042,-0.06589 0.0084,-0.131991 0.01274,-0.197216 0.0019,-0.02916 0.0054,-0.07642 0.0078,-0.105545 0.0016,-0.0203 0.0033,-0.04037 0.0049,-0.06039 0.0024,-0.02913 -0.0194,-0.05274 -0.04863,-0.05274 l -0.67551,0 a 0.05291667,0.05291667 135 0 0 -0.05292,0.05292 z m 1.494341,-1.34e-4 c -0.0049,0.06953 -0.0096,0.139396 -0.01411,0.210665 -0.0019,0.02917 -0.0047,0.07646 -0.0062,0.105652 -7.58e-4,0.0155 -0.0015,0.03113 -0.0022,0.04676 -0.0014,0.02919 0.02097,0.05284 0.05019,0.05284 h 0.421265 0.103557 0.19513 0.05502 0.181694 0.101497 0.280913 c 0.106863,0 0.117355,-0.02163 0.129104,-0.04839 0.01105,-0.02517 0.02204,-0.0504 0.03366,-0.07685 0.01176,-0.02675 0.03094,-0.07008 0.04279,-0.09679 0.02948,-0.0664 0.05933,-0.132342 0.08947,-0.19852 0.01211,-0.0266 -0.0017,-0.04815 -0.03096,-0.04815 H 15.304606 15.203109 14.689652 14.134647 13.85148 c -0.02923,0 -0.05462,0.02363 -0.05668,0.05278 z m 2.81912,0.56851 c 0.01233,0.249822 0.0244,0.49966 0.0358,0.74953 0.0013,0.0292 0.0034,0.07653 0.0046,0.105734 0.0011,0.02703 0.01157,0.02729 0.02364,6.71e-4 0.076,-0.167586 0.157126,-0.332388 0.242488,-0.495149 0.01357,-0.02588 0.03526,-0.06801 0.04794,-0.09434 0.0137,-0.02844 0.02755,-0.05782 0.04189,-0.08812 0.0125,-0.02641 0.03294,-0.06916 0.04564,-0.09548 0.0138,-0.02858 0.02804,-0.05799 0.04232,-0.08792 0.01258,-0.02638 -0.0011,-0.04784 -0.03032,-0.04784 l -0.403663,5.2e-5 c -0.02923,4e-6 -0.05175,0.02367 -0.0503,0.05286 z m 0.569449,1.325871 c -0.03371,0.06139 -0.04181,0.07623 -0.04992,0.09089 -0.01415,0.02556 -0.0024,0.04605 0.02687,0.04605 h 0.0017 c 0.02923,0 0.05167,-0.02366 0.05004,-0.05284 -0.0013,-0.02352 -0.0027,-0.04705 -0.004,-0.07054 -0.0016,-0.02918 -0.003,-0.05283 -0.003,-0.05283 z"
         sodipodi:nodetypes="ccscccsccccccccccccccccscccsssccccccccccccccscccscscccccsssscccsssccccccccscccccccccsccccccscccscccccccccccccccccccccccccccccccccccccsccsccccs"
         inkscape:path-effect="#path-effect18"
         inkscape:original-d="m 13.341747,73.73057 v 0.0015 c -0.01693,0.14104 -0.03322,0.286033 -0.04909,0.435632 -0.01587,0.149598 -0.03146,0.302905 -0.04651,0.460954 -0.0204,0.24472 -0.04085,0.499828 -0.06098,0.756026 -0.0059,0.07464 -0.01167,0.145289 -0.01757,0.220659 -0.0078,0.114663 -0.01585,0.231109 -0.02325,0.347782 -0.0033,0.05182 -0.0066,0.101986 -0.0098,0.153996 -0.01046,0.169557 -0.02005,0.34061 -0.02945,0.513664 -0.01648,0.299953 -0.03143,0.597528 -0.04496,0.894519 h 0.537435 c 0.0081,-0.220649 0.01612,-0.441214 0.02532,-0.659908 0.0109,-0.260541 0.02196,-0.519374 0.03514,-0.777214 0.0024,-0.04493 0.0033,-0.08745 0.0057,-0.131258 0.0038,-0.06843 0.0099,-0.137889 0.01395,-0.204639 0.0053,-0.08589 0.01642,-0.26204 0.02532,-0.365352 0.01438,-0.195557 0.0288,-0.384827 0.04496,-0.570508 l 0.01344,-0.170015 0.0801,0.150378 c 0.02193,0.04162 0.03725,0.06829 0.0646,0.12299 v 0.0021 l 0.0057,0.0098 c 2.57e-4,5e-4 -2.57e-4,0.0016 0,0.0021 0.0301,0.05681 0.06196,0.115606 0.09405,0.179834 0.03416,0.06838 0.06963,0.141362 0.10542,0.218592 l 0.525532,0.0099 h 0.0021 c -0.04269,-0.09225 -0.229514,-0.49385 -0.314691,-0.667741 -0.05815,-0.118704 -0.11751,-0.235156 -0.1757,-0.347783 -0.05829,-0.112815 -0.115307,-0.216989 -0.170015,-0.314709 -0.0547,-0.09771 -0.10732,-0.188491 -0.15813,-0.271301 z m 3.122807,0 0.275435,0.587561 c 0.0064,0.01365 0.473737,0.981199 0.537478,1.113643 h -0.148311 -0.605648 -0.29869 c -0.04343,0.09088 -0.09034,0.187787 -0.136943,0.284737 -0.022,0.04617 -0.03939,0.08648 -0.06253,0.134875 -0.0078,0.01667 -0.01585,0.03278 -0.02325,0.04909 h 0.556555 0.611332 0.107487 c -0.05054,0.109224 -0.102659,0.217245 -0.15452,0.326061 -0.161556,0.316861 -0.311815,0.639162 -0.462986,0.961328 l -0.153996,0.328145 h 0.484136 c 0.03695,-0.0608 0.07045,-0.123586 0.10542,-0.185517 0.03769,-0.0625 0.07033,-0.127817 0.10542,-0.191718 0.0215,-0.0406 0.04265,-0.08051 0.0646,-0.12299 0.05832,-0.112889 0.11721,-0.229168 0.1757,-0.347782 0.05973,-0.120311 0.115503,-0.242876 0.173633,-0.364836 0.103916,-0.21261 0.197473,-0.420491 0.295121,-0.636716 -0.12342,-0.27713 -0.166767,-0.370642 -0.294652,-0.638781 -0.05738,-0.121106 -0.11552,-0.242575 -0.17415,-0.363285 -0.05847,-0.118563 -0.11735,-0.234838 -0.1757,-0.347783 -0.02918,-0.05646 -0.05765,-0.111701 -0.08578,-0.164331 -0.02803,-0.05246 -0.05697,-0.102898 -0.08423,-0.151928 -0.02725,-0.04902 -0.05396,-0.09616 -0.0801,-0.141077 -0.02595,-0.0446 -0.05086,-0.08568 -0.07596,-0.126607 z m -0.06615,0.08992 c -0.03471,0.05858 -0.06913,0.116104 -0.10542,0.181384 -0.05429,0.09766 -0.10959,0.201759 -0.167948,0.314709 -0.0582,0.112656 -0.11715,0.229034 -0.1757,0.347783 -0.05855,0.118751 -0.115463,0.241013 -0.173633,0.364835 -0.05826,0.122145 -0.115963,0.245904 -0.172083,0.369487 -4e-4,7e-4 -0.0014,0.002 -0.0021,0.0036 -8e-4,0.0021 -0.0015,0.0028 -0.0021,0.0041 v 0.0021 c -0.03039,0.06616 -0.05982,0.131925 -0.08992,0.198955 -0.02422,0.05415 -0.04827,0.108644 -0.07183,0.162264 h -0.0021 c -0.0327,0.07329 -0.05942,0.133091 -0.08992,0.201021 -0.05566,0.123984 -0.111404,0.251061 -0.162264,0.365352 l -0.04703,0.103353 -0.04444,-0.103353 c -0.04669,-0.105058 -0.09935,-0.221496 -0.150896,-0.335896 h -0.109037 -0.05064 -0.183968 -0.0021 -0.167948 c 0.04816,0.100854 0.09417,0.202702 0.140562,0.30437 0.07125,0.161265 0.137394,0.312383 0.197404,0.451135 v 0.0021 c 0.06353,0.138313 0.114965,0.254205 0.152445,0.344165 h 0.43925 c 0.03759,-0.09022 0.08653,-0.204882 0.146761,-0.344165 v -0.0021 c 0.06395,-0.139179 0.131578,-0.289283 0.203088,-0.451135 0.05427,-0.122825 0.113323,-0.247969 0.172083,-0.374654 0.01844,-0.04012 0.03479,-0.07971 0.05426,-0.12144 0.02304,-0.04819 0.04243,-0.08826 0.06459,-0.134359 0.14607,-0.306465 0.205232,-0.43773 0.269733,-0.57059 0.05174,-0.106539 0.09666,-0.196579 0.1659,-0.322525 l 0.0801,-0.144178 0.01344,0.163815 c 0.01503,0.171868 0.02836,0.350664 0.04134,0.531233 h 0.505913 c -0.0034,-0.04098 -0.0086,-0.08169 -0.01189,-0.12299 -0.0099,-0.0213 -0.02046,-0.04365 -0.02946,-0.06253 -0.381842,-0.798679 0.240036,0.535269 -0.382955,-0.784948 z m -4.097941,1.611271 v 0.468705 h 0.748274 c 0.0064,-0.101072 0.01284,-0.203334 0.01964,-0.302824 0.0045,-0.05691 0.009,-0.111051 0.01343,-0.165881 z m 1.4981,0 c -0.0075,0.104077 -0.01449,0.208296 -0.02119,0.31626 -0.003,0.04939 -0.0049,0.101615 -0.0078,0.152445 h 0.527099 0.05064 0.248047 0.0021 0.234611 0.04858 0.33383 0.05478 c 0.02543,-0.05694 0.04835,-0.110573 0.07648,-0.173633 0.04349,-0.09897 0.08786,-0.196582 0.132808,-0.295072 h -0.226859 -0.04858 -0.566374 -0.555005 z m 2.812748,0.568441 c 0.01411,0.285054 0.02792,0.570128 0.04081,0.855244 0.0015,0.0337 0.0027,0.06796 0.0041,0.101802 0.08939,-0.200373 0.186194,-0.396691 0.288887,-0.59021 0.02843,-0.05708 0.05669,-0.118271 0.08785,-0.183451 0.02756,-0.05767 0.05812,-0.119791 0.08785,-0.183451 z m 0.593762,1.339453 c -0.0071,0.0129 -0.0147,0.0266 -0.0217,0.03927 -0.0263,0.0473 -0.0505,0.09311 -0.07597,0.136942 h 0.107487 c -0.0031,-0.0587 -0.0066,-0.117646 -0.0098,-0.176216 z" />
      <path
         id="path22"
         style="color:#000000;-inkscape-font-specification:Ubuntu;display:inline;opacity:0.2;fill:#000000;fill-rule:evenodd;-inkscape-stroke:none"
         d="m 13.341844,73.730247 c 0,8.28e-4 -0.004,0.03468 -0.0088,0.07545 -0.01185,0.100953 -0.0233,0.203754 -0.03462,0.309025 -0.0031,0.02906 -0.0083,0.07636 -0.01137,0.10542 -0.01219,0.116113 -0.02395,0.234386 -0.03566,0.355534 -0.0028,0.02909 -0.0074,0.0763 -0.0098,0.10542 -0.01754,0.211629 -0.03485,0.430514 -0.05219,0.650606 -0.0023,0.02913 -0.0059,0.07629 -0.0083,0.10542 -0.0031,0.03849 -0.0062,0.07654 -0.0093,0.115239 -0.0023,0.02913 -0.0058,0.07626 -0.0078,0.10542 -0.0055,0.08015 -0.01126,0.161237 -0.01654,0.242362 -0.0019,0.02916 -0.0048,0.07626 -0.0067,0.10542 -0.001,0.01613 -0.0021,0.03242 -0.0031,0.04858 -0.0019,0.02917 -0.0044,0.07625 -0.0062,0.10542 -0.0082,0.134941 -0.01627,0.271095 -0.02377,0.408244 -0.0016,0.02918 -0.0041,0.07624 -0.0057,0.10542 -0.01438,0.264297 -0.02719,0.526589 -0.03927,0.788582 -3.68e-4,0.008 0.0013,0.01544 0.0041,0.02222 0.01108,-0.236017 0.02219,-0.472566 0.03514,-0.710551 0.0016,-0.02918 0.0041,-0.07624 0.0057,-0.10542 0.0075,-0.137148 0.0156,-0.273303 0.02377,-0.408244 0.0018,-0.02917 0.0043,-0.07625 0.0062,-0.10542 10e-4,-0.01615 0.0021,-0.03244 0.0031,-0.04858 0.0019,-0.02916 0.0048,-0.07626 0.0067,-0.10542 0.0053,-0.08113 0.01107,-0.162209 0.01654,-0.242362 0.002,-0.02916 0.0054,-0.07629 0.0078,-0.10542 0.0031,-0.0387 0.0062,-0.07675 0.0093,-0.115238 0.0023,-0.02913 0.006,-0.07629 0.0083,-0.10542 0.01734,-0.220093 0.03465,-0.438977 0.05219,-0.650607 0.0024,-0.02913 0.007,-0.07633 0.0098,-0.10542 0.0117,-0.121148 0.02346,-0.23942 0.03566,-0.355533 0.0031,-0.02907 0.0082,-0.07636 0.01137,-0.10542 0.01132,-0.105271 0.02278,-0.208073 0.03462,-0.309025 0.0048,-0.04076 0.0088,-0.07462 0.0088,-0.07545 h 0.425814 c 0.02922,0 0.06504,0.02043 0.0801,0.04547 0.03406,0.05668 0.06913,0.116641 0.104903,0.179834 0.0144,0.02543 0.03749,0.06643 0.05168,0.09198 0.03899,0.07023 0.07913,0.143966 0.119889,0.221692 0.01357,0.02588 0.03521,0.06806 0.04858,0.09405 0.04255,0.08272 0.08563,0.167283 0.128157,0.253215 0.01296,0.02619 0.03381,0.06877 0.04651,0.09508 0.06651,0.137832 0.164515,0.34829 0.243913,0.518832 a 2.9208766,2.9208766 0 0 0 0.04754,0.001 c -0.08158,-0.175681 -0.211968,-0.455385 -0.291455,-0.620117 -0.0127,-0.02631 -0.03355,-0.06889 -0.04651,-0.09508 -0.04252,-0.08593 -0.0856,-0.170498 -0.128157,-0.253215 -0.01337,-0.02599 -0.035,-0.06817 -0.04858,-0.09405 -0.04076,-0.07773 -0.0809,-0.151461 -0.119889,-0.221692 -0.01419,-0.02555 -0.03728,-0.06655 -0.05168,-0.09198 -0.03577,-0.06319 -0.07084,-0.123675 -0.104903,-0.180351 -0.01506,-0.02505 -0.05087,-0.04496 -0.0801,-0.04496 z m 3.175517,0 a 0.03347312,0.03347312 0 0 0 -0.03049,0.04806 l 0.02584,0.05478 a 0.03347312,0.03347312 0 0 1 0.0047,-0.0026 l 0.368969,0.0021 c 0.02923,1.29e-4 0.06548,0.01996 0.08062,0.04496 0.0071,0.01181 0.01448,0.02406 0.0217,0.03617 0.01497,0.0251 0.03872,0.0661 0.05323,0.09147 0.0092,0.0161 0.01856,0.0325 0.02791,0.04909 0.01434,0.02547 0.03737,0.0665 0.05168,0.09198 0.01095,0.0195 0.02201,0.0394 0.03307,0.05943 0.01413,0.02558 0.03655,0.06766 0.05013,0.09353 0.01215,0.02315 0.02435,0.04643 0.03669,0.07028 0.01343,0.02595 0.03522,0.06806 0.04858,0.09405 0.04257,0.08288 0.08501,0.167356 0.127641,0.253215 0.013,0.02617 0.03378,0.06878 0.04651,0.09508 0.04312,0.0891 0.08624,0.178882 0.128674,0.268201 0.01254,0.0264 0.03291,0.0687 0.04547,0.09509 0.103241,0.216793 0.149513,0.317948 0.249081,0.541052 3.19e-4,-7.07e-4 7.14e-4,-0.0014 0.001,-0.0021 0.01203,-0.02663 0.01191,-0.06995 0,-0.09664 -0.100363,-0.224916 -0.146476,-0.324975 -0.250114,-0.542603 -0.01257,-0.02639 -0.03293,-0.0692 -0.04547,-0.0956 -0.04244,-0.08932 -0.08556,-0.17858 -0.128674,-0.267684 -0.01273,-0.02631 -0.03351,-0.06891 -0.04651,-0.09508 -0.04263,-0.08586 -0.08507,-0.170332 -0.127641,-0.253215 -0.01335,-0.026 -0.03514,-0.0681 -0.04858,-0.09405 -0.01234,-0.02385 -0.02454,-0.04765 -0.03669,-0.0708 -0.01358,-0.02588 -0.03599,-0.06744 -0.05013,-0.09302 -0.01106,-0.02003 -0.02212,-0.03993 -0.03307,-0.05943 -0.01431,-0.02548 -0.03734,-0.06652 -0.05168,-0.09198 -0.0093,-0.0166 -0.0187,-0.03299 -0.02791,-0.04909 -0.01451,-0.02537 -0.03826,-0.06637 -0.05323,-0.09147 -0.0072,-0.01211 -0.01455,-0.02437 -0.0217,-0.03617 -0.01514,-0.025 -0.05139,-0.04535 -0.08062,-0.04547 z m -0.120406,0.117305 c -0.0089,-4.47e-4 -0.01788,0.0055 -0.02532,0.01809 -0.01732,0.02926 -0.03499,0.05895 -0.05271,0.08992 -0.01452,0.02536 -0.03763,0.06687 -0.05168,0.0925 -0.03844,0.07015 -0.07735,0.143442 -0.117823,0.221175 -0.0135,0.02592 -0.03522,0.06806 -0.04857,0.09405 -0.0425,0.08274 -0.08547,0.167251 -0.128158,0.253215 -0.013,0.02617 -0.03373,0.0688 -0.04651,0.09508 -0.04292,0.08829 -0.08544,0.178184 -0.128157,0.269234 -0.01241,0.02646 -0.03244,0.06919 -0.04496,0.0956 -0.04299,0.09067 -0.08582,0.18243 -0.127641,0.273885 l -0.02377,0.05168 -0.0021,0.0041 v 0.0021 c -0.03748,0.08224 -0.05279,0.116042 -0.06821,0.150379 -0.01197,0.02666 -0.03155,0.06992 -0.04341,0.09663 -0.0097,0.02186 -0.01934,0.04385 -0.02894,0.06563 -0.01179,0.02674 -0.02209,0.04858 -0.02325,0.04858 -0.0377,0.08446 -0.05273,0.117899 -0.06821,0.152445 -0.01195,0.02667 -0.03149,0.06995 -0.04341,0.09664 -0.04067,0.09108 -0.08125,0.182742 -0.119373,0.268718 -0.01185,0.02671 -0.0313,0.07003 -0.04341,0.09663 l -0.0031,0.0072 a 0.02341322,0.02341322 0 0 1 -0.04289,-5.17e-4 l -0.0026,-0.0062 c -0.01154,-0.02685 -0.03045,-0.07047 -0.04237,-0.09715 -0.03425,-0.07667 -0.07084,-0.157975 -0.107487,-0.239262 -0.01159,-0.02571 -0.04337,-0.04611 -0.07183,-0.04754 h -0.01033 -0.101803 -0.181384 -0.05529 -0.0646 c -0.02714,0.0014 -0.03991,0.0215 -0.0279,0.04703 0.0084,0.01783 0.01652,0.03588 0.0248,0.05374 0.002,-2.41e-4 0.0035,-0.001 0.0057,-0.001 h 0.115238 0.05478 0.131258 0.103353 0.0031 c 0.02923,0 0.06292,0.02142 0.07493,0.04806 0.03665,0.08129 0.07324,0.162594 0.107487,0.239262 0.01192,0.02668 0.03083,0.0703 0.04237,0.09715 l 0.0026,0.0062 a 0.02341322,0.02341322 0 0 0 0.04289,5.16e-4 l 0.0031,-0.0072 c 0.0121,-0.0266 0.03156,-0.06992 0.04341,-0.09663 0.03813,-0.08598 0.0787,-0.177636 0.119373,-0.268718 0.01192,-0.02669 0.03146,-0.06945 0.04341,-0.09612 0.01548,-0.03455 0.03051,-0.06851 0.06821,-0.152962 0.0012,0 0.01146,-0.02184 0.02325,-0.04858 0.0096,-0.02178 0.01923,-0.04325 0.02894,-0.06511 0.01186,-0.02671 0.03144,-0.06997 0.04341,-0.09663 0.01542,-0.03434 0.03073,-0.06866 0.06821,-0.150895 v -0.0021 l 0.0021,-0.0041 0.02377,-0.05168 c 0.04182,-0.09145 0.08465,-0.183217 0.127641,-0.273885 0.01252,-0.02641 0.03254,-0.06915 0.04496,-0.0956 0.04272,-0.09105 0.08523,-0.180941 0.128157,-0.269235 0.01278,-0.02628 0.03351,-0.06891 0.04651,-0.09508 0.04268,-0.08596 0.08566,-0.170476 0.128158,-0.253215 0.01335,-0.026 0.03508,-0.06813 0.04857,-0.09405 0.04047,-0.07773 0.07938,-0.151025 0.117823,-0.221175 0.01404,-0.02563 0.03716,-0.06714 0.05168,-0.0925 0.01772,-0.03096 0.03539,-0.06066 0.05271,-0.08992 0.01489,-0.02515 0.03677,-0.02392 0.04909,0.0026 l 0.206705,0.444934 c 0.01232,0.0265 0.1976,0.397835 0.40566,0.833024 0.0022,0.0047 0.0043,0.0094 0.0067,0.01447 0.0069,0.01452 0.01294,0.03421 0.01809,0.05426 0.0082,-0.0095 0.01284,-0.02207 0.01137,-0.03617 -6.13e-4,-0.0059 -0.0015,-0.0122 -0.0021,-0.01809 -0.003,-0.02906 -0.01487,-0.07385 -0.02739,-0.100253 -0.0024,-0.005 -0.0045,-0.0098 -0.0067,-0.01447 -0.20806,-0.435189 -0.393338,-0.806523 -0.40566,-0.833024 l -0.206705,-0.444934 c -0.0062,-0.01325 -0.01485,-0.02022 -0.02377,-0.02067 z m 0.83199,1.582849 c -0.0017,1.56e-4 -0.0029,10e-4 -0.0047,10e-4 h -0.04237 -0.15813 c -9.2e-4,4.8e-5 -0.0016,5.17e-4 -0.0026,5.17e-4 H 16.62123 c -9.13e-4,0 -0.0017,-4.72e-4 -0.0026,-5.17e-4 h -0.04237 -0.29869 c -0.02923,0 -0.0628,0.02119 -0.07545,0.04754 -0.02951,0.0615 -0.06058,0.125513 -0.09147,0.189653 -0.01268,0.02633 -0.0328,0.06903 -0.04496,0.0956 -0.0059,0.01295 -0.01205,0.0256 -0.01809,0.03876 -0.01218,0.02656 -0.03283,0.06901 -0.04496,0.0956 6.9e-4,0 0.02196,0.0013 0.04651,0.0015 0.0055,-0.01205 0.01109,-0.02376 0.01654,-0.03566 0.01216,-0.02657 0.03228,-0.06927 0.04496,-0.0956 0.03089,-0.06414 0.06196,-0.128155 0.09147,-0.189653 0.01264,-0.02635 0.04622,-0.04754 0.07545,-0.04754 h 0.29869 0.605648 0.04237 c 0.02923,0 0.04316,-0.02127 0.03049,-0.04754 -0.0052,-0.01068 -0.01959,-0.04078 -0.02584,-0.05374 z m -4.875671,10e-4 a 0.05291667,0.05291667 0 0 0 -0.05271,0.05271 v 0.100252 a 0.05291667,0.05291667 0 0 1 0.05271,-0.05271 h 0.675411 c 0.01939,0 0.03494,0.01085 0.04289,0.02635 3.32e-4,-0.0042 7.33e-4,-0.0097 0.001,-0.01344 0.0016,-0.0203 0.003,-0.04044 0.0047,-0.06046 0.0024,-0.02913 -0.01935,-0.05271 -0.04858,-0.05271 z m 1.498099,0 c -0.02923,0 -0.05428,0.02356 -0.05633,0.05271 -0.0049,0.06953 -0.0099,0.139571 -0.01447,0.21084 -0.0019,0.02917 -0.0048,0.07623 -0.0062,0.10542 -7.58e-4,0.0155 -0.0013,0.03139 -0.0021,0.04703 -3.83e-4,0.008 0.0013,0.01492 0.0041,0.0217 0.0015,-0.02578 0.0028,-0.05346 0.0041,-0.0739 0.0045,-0.07127 0.0096,-0.141309 0.01447,-0.21084 0.0021,-0.02915 0.0271,-0.05271 0.05633,-0.05271 h 0.283187 0.555005 0.513664 0.101286 0.120923 c 0.0026,0 0.0044,0.0012 0.0067,0.0015 0.0081,-0.01791 0.01612,-0.03581 0.02429,-0.05374 0.01211,-0.0266 -0.0018,-0.04806 -0.03101,-0.04806 h -0.120923 -0.101286 -0.513664 -0.05064 c 5.6e-5,1.2e-4 -5.5e-5,3.97e-4 0,5.17e-4 a 2.9208766,2.9208766 0 0 1 -0.02739,-5.17e-4 H 14.13456 Z m 2.810165,0.568957 c -0.02786,0.0015 -0.04894,0.02394 -0.04754,0.05219 0.0013,0.02617 0.0023,0.05238 0.0036,0.07855 0.0074,-0.01838 0.02502,-0.031 0.04651,-0.03101 h 0.403593 c 0.0018,0 0.003,8.77e-4 0.0047,0.001 0.0086,-0.01784 0.01711,-0.03545 0.02584,-0.05374 0.01215,-0.02548 -6.99e-4,-0.04564 -0.02791,-0.04703 z m 0.568441,10e-4 c -0.0279,0.05905 -0.05603,0.11771 -0.08423,0.176733 -0.0126,0.02637 -0.03332,0.069 -0.04651,0.09509 -0.144555,0.285919 -0.2809,0.575873 -0.417029,0.866097 -0.01241,0.02645 -0.03254,0.06966 -0.04496,0.09612 l -0.109037,0.232027 a 0.03362061,0.03362061 0 0 0 0.02584,0.04548 l 0.0832,-0.177251 c 0.01242,-0.02646 0.03255,-0.06915 0.04496,-0.0956 0.136129,-0.290224 0.272474,-0.580695 0.417029,-0.866614 0.01319,-0.02608 0.03391,-0.0682 0.04651,-0.09457 0.03669,-0.07679 0.07353,-0.15348 0.109554,-0.230477 0.01147,-0.02451 -4.47e-4,-0.04415 -0.02532,-0.04703 z m -0.02481,1.337903 -0.0217,0.03927 c -0.03371,0.06139 -0.04201,0.0763 -0.05013,0.09095 -0.01416,0.02556 -0.0024,0.04599 0.02687,0.04599 h 0.0016 c 5.62e-4,0 9.93e-4,-4.99e-4 0.0015,-5.16e-4 0.0069,-0.01262 0.0067,-0.0117 0.02015,-0.03617 l 0.0217,-0.03927 c 8e-6,-2e-6 0.0013,0.02179 0.0026,0.04496 0.0028,-0.0068 0.0046,-0.01373 0.0041,-0.0217 -0.0013,-0.02352 -0.0023,-0.0473 -0.0036,-0.0708 -0.0016,-0.02918 -0.0031,-0.05271 -0.0031,-0.05271 z" />
    </g>
  </g>
</svg>
