<?xml version="1.0" encoding="UTF-8" standalone="no"?>
<!-- Created with Inkscape (http://www.inkscape.org/) -->

<svg
   version="1.1"
   id="svg1"
   width="256"
   height="256"
   viewBox="0 0 256 256"
   sodipodi:docname="Markright.svg"
   inkscape:version="1.3 (0e150ed6c4, 2023-07-21)"
   xmlns:inkscape="http://www.inkscape.org/namespaces/inkscape"
   xmlns:sodipodi="http://sodipodi.sourceforge.net/DTD/sodipodi-0.dtd"
   xmlns="http://www.w3.org/2000/svg"
   xmlns:svg="http://www.w3.org/2000/svg">
  <defs
     id="defs1">
    <inkscape:path-effect
       effect="fillet_chamfer"
       id="path-effect1"
       is_visible="true"
       lpeversion="1"
       nodesatellites_param="F,0,1,1,0,26.970383,0,1 @ F,0,0,1,0,26.970383,0,1 @ F,0,1,1,0,26.970383,0,1 @ F,0,1,1,0,26.970383,0,1"
       radius="0"
       unit="px"
       method="auto"
       mode="F"
       chamfer_steps="1"
       flexible="false"
       use_knot_distance="true"
       apply_no_radius="true"
       apply_with_radius="true"
       only_selected="false"
       hide_knots="false" />
  </defs>
  <sodipodi:namedview
     id="namedview1"
     pagecolor="#7c7c7c"
     bordercolor="#999999"
     borderopacity="1"
     inkscape:showpageshadow="0"
     inkscape:pageopacity="0"
     inkscape:pagecheckerboard="0"
     inkscape:deskcolor="#d1d1d1"
     inkscape:zoom="1.8950131"
     inkscape:cx="140.63227"
     inkscape:cy="144.59003"
     inkscape:window-width="1920"
     inkscape:window-height="1017"
     inkscape:window-x="0"
     inkscape:window-y="32"
     inkscape:window-maximized="1"
     inkscape:current-layer="svg1" />
  <path
     id="rect2"
     style="display:inline;opacity:1;fill:#545454;fill-rule:evenodd;stroke:#545454;stroke-width:1.00001"
     d="M 26.970383,0 H 229.02962 A 26.970383,26.970383 45 0 1 256,26.970383 V 229.02962 A 26.970383,26.970383 135 0 1 229.02962,256 H 26.970383 A 26.970383,26.970383 45 0 1 0,229.02962 V 26.970383 A 26.970383,26.970383 135 0 1 26.970383,0 Z"
     sodipodi:nodetypes="ccccc"
     inkscape:path-effect="#path-effect1"
     inkscape:original-d="m 0,0 c 85.333333,0 170.66667,0 256,0 0,85.333333 0,170.66667 0,256 -85.33333,0 -170.666667,0 -256,0 C 0,170.66667 0,85.333333 0,0 Z" />
  <path
     id="rect1"
     style="display:inline;opacity:1;fill:#ffffff;fill-rule:evenodd;stroke:#ffffff;stroke-width:0.807071"
     d="m 66.045156,52.550116 c -4.804291,0 -8.896816,1.699902 -11.470868,4.765176 C 53.580693,58.498501 42.789512,84.513635 30.593758,115.12632 6.5475695,175.4849 6.6251465,175.23225 9.9313762,181.9554 c 4.2511378,8.64461 17.9752838,10.29136 24.1917578,2.90356 1.097614,-1.30443 8.569524,-18.92164 16.746807,-39.48805 8.120363,-20.42324 14.956005,-37.13134 15.190977,-37.12989 0.234972,0.002 2.92166,6.58478 5.969522,14.6297 l 5.540756,14.62654 -7.091857,17.85481 c -5.394183,13.57986 -7.081776,18.73629 -7.049292,21.53393 0.179695,15.47318 21.036951,20.23387 27.941817,6.37773 l 2.039761,-4.0921 1.547937,3.501 c 5.090218,11.50718 21.223418,12.3871 26.797418,1.46123 2.89312,-5.67094 2.26441,-9.12219 -5.2192,-28.66514 l -6.79235,-17.73974 5.34372,-13.55939 c 2.93911,-7.45765 5.59513,-13.27517 5.90331,-12.92886 0.30819,0.3463 3.90409,9.1637 7.99036,19.59505 9.02845,23.04763 8.67543,22.31992 12.08563,24.923 l 2.76959,2.11381 21.65074,0.40354 21.65073,0.40353 -12.29213,9.2813 c -6.75997,5.1047 -13.07125,10.45332 -14.02609,11.88534 -4.95736,7.43483 -1.91652,17.39448 6.51809,21.3495 4.74059,2.22287 10.12657,1.48293 15.33442,-2.10595 2.23773,-1.54209 16.77993,-12.35415 32.3161,-24.02764 24.37311,-18.31334 28.50395,-21.7231 30.11872,-24.85678 2.23662,-4.3404 1.98629,-9.84025 -0.64156,-14.09216 -1.04029,-1.68323 -13.3065,-11.41497 -32.92929,-26.1257 -34.16949,-25.616053 -35.55622,-26.417448 -42.25953,-24.409105 -6.8765,2.060245 -12.06833,10.039702 -10.8293,16.644225 0.87736,4.67671 3.92241,7.89259 16.39844,17.31413 l 12.29055,9.2813 -13.05033,0.22225 c -7.6302,0.13006 -13.24778,-0.0956 -13.52482,-0.54382 -1.04005,-1.68282 -24.97823,-61.971766 -25.42285,-64.027981 -0.63828,-2.951712 -5.05742,-7.864893 -8.28514,-9.213511 -3.12876,-1.307267 -8.16103,-1.412589 -11.28486,-0.234869 -5.22314,1.969185 -7.17539,5.131263 -14.50055,23.480659 -3.866173,9.684667 -7.111552,17.522911 -7.211662,17.418187 C 93.757609,95.814309 91.05729,88.827853 87.856673,80.393991 81.774669,64.367451 80.112078,60.911588 76.650629,57.118253 73.60929,53.785305 70.74054,52.550116 66.045156,52.550116 Z" />
</svg>
